<?xml version="1.0" encoding="UTF-8" standalone="no"?>
<svg
   id="svg3430"
   width="800"
   height="800"
   viewBox="0 0 799.99974 800.00104"
   version="1.1"
   sodipodi:docname="multiflexi-doc.svg"
   inkscape:version="1.4 (e7c3feb100, 2024-10-09)"
   xmlns:inkscape="http://www.inkscape.org/namespaces/inkscape"
   xmlns:sodipodi="http://sodipodi.sourceforge.net/DTD/sodipodi-0.dtd"
   xmlns="http://www.w3.org/2000/svg"
   xmlns:svg="http://www.w3.org/2000/svg"
   xmlns:rdf="http://www.w3.org/1999/02/22-rdf-syntax-ns#"
   xmlns:cc="http://creativecommons.org/ns#"
   xmlns:dc="http://purl.org/dc/elements/1.1/">
  <metadata
     id="metadata41">
    <rdf:RDF>
      <cc:Work
         rdf:about="">
        <dc:format>image/svg+xml</dc:format>
        <dc:type
           rdf:resource="http://purl.org/dc/dcmitype/StillImage" />
        <dc:title />
      </cc:Work>
    </rdf:RDF>
  </metadata>
  <sodipodi:namedview
     pagecolor="#ffffff"
     bordercolor="#666666"
     borderopacity="1"
     objecttolerance="10"
     gridtolerance="10"
     guidetolerance="10"
     inkscape:pageopacity="0"
     inkscape:pageshadow="2"
     inkscape:window-width="1366"
     inkscape:window-height="761"
     id="namedview39"
     showgrid="false"
     inkscape:zoom="0.3076141"
     inkscape:cx="503.87807"
     inkscape:cy="370.5942"
     inkscape:window-x="0"
     inkscape:window-y="0"
     inkscape:window-maximized="1"
     inkscape:current-layer="svg3430"
     inkscape:showpageshadow="2"
     inkscape:pagecheckerboard="0"
     inkscape:deskcolor="#d1d1d1" />
  <defs
     id="defs3434">
    <clipPath
       id="clipPath3444">
      <path
         id="path3446"
         d="M 11.52,162 C 11.52,81.677 135.307,16.56 288,16.56 440.693,16.56 564.48,81.678 564.48,162 564.48,242.322 440.693,307.44 288,307.44 135.307,307.44 11.52,242.32 11.52,162"
         inkscape:connector-curvature="0" />
    </clipPath>
    <radialGradient
       id="radialGradient3452"
       cx="0"
       cy="0"
       r="1"
       fx="0"
       fy="0"
       gradientTransform="matrix(363.06,0,0,-363.06,177.52,256.31)"
       gradientUnits="userSpaceOnUse"
       spreadMethod="pad">
      <stop
         id="stop3454"
         offset="0"
         stop-color="#aeb2d5" />
      <stop
         id="stop3456"
         offset="0.3"
         stop-color="#aeb2d5" />
      <stop
         id="stop3458"
         offset="0.75"
         stop-color="#484c89" />
      <stop
         id="stop3460"
         offset="1"
         stop-color="#484c89" />
    </radialGradient>
    <clipPath
       id="clipPath3468">
      <path
         id="path3470"
         d="M 0,324 H 576 V 0 H 0 Z"
         inkscape:connector-curvature="0" />
    </clipPath>
    <clipPath
       id="clipPath3480">
      <path
         id="path3482"
         d="M 0,324 H 576 V 0 H 0 Z"
         inkscape:connector-curvature="0" />
    </clipPath>
    <filter
       style="color-interpolation-filters:sRGB"
       inkscape:label="Drop Shadow"
       id="filter4622"
       x="-0.1215186"
       y="-0.21051334"
       width="1.29367"
       height="1.5087406">
      <feFlood
         flood-opacity="0.498039"
         flood-color="rgb(0,0,0)"
         result="flood"
         id="feFlood4612" />
      <feComposite
         in="flood"
         in2="SourceGraphic"
         operator="in"
         result="composite1"
         id="feComposite4614" />
      <feGaussianBlur
         in="composite1"
         stdDeviation="6"
         result="blur"
         id="feGaussianBlur4616" />
      <feOffset
         dx="6"
         dy="6"
         result="offset"
         id="feOffset4618" />
      <feComposite
         in="SourceGraphic"
         in2="offset"
         operator="over"
         result="fbSourceGraphic"
         id="feComposite4620" />
      <feColorMatrix
         result="fbSourceGraphicAlpha"
         in="fbSourceGraphic"
         values="0 0 0 -1 0 0 0 0 -1 0 0 0 0 -1 0 0 0 0 1 0"
         id="feColorMatrix4624" />
      <feFlood
         id="feFlood4626"
         flood-opacity="0.498039"
         flood-color="rgb(0,0,0)"
         result="flood"
         in="fbSourceGraphic" />
      <feComposite
         in2="fbSourceGraphic"
         id="feComposite4628"
         in="flood"
         operator="in"
         result="composite1" />
      <feGaussianBlur
         id="feGaussianBlur4630"
         in="composite1"
         stdDeviation="6"
         result="blur" />
      <feOffset
         id="feOffset4632"
         dx="6"
         dy="6"
         result="offset" />
      <feComposite
         in2="offset"
         id="feComposite4634"
         in="fbSourceGraphic"
         operator="over"
         result="fbSourceGraphic" />
      <feColorMatrix
         result="fbSourceGraphicAlpha"
         in="fbSourceGraphic"
         values="0 0 0 -1 0 0 0 0 -1 0 0 0 0 -1 0 0 0 0 1 0"
         id="feColorMatrix4636" />
      <feFlood
         id="feFlood4638"
         flood-opacity="0.498039"
         flood-color="rgb(0,0,0)"
         result="flood"
         in="fbSourceGraphic" />
      <feComposite
         in2="fbSourceGraphic"
         id="feComposite4640"
         in="flood"
         operator="in"
         result="composite1" />
      <feGaussianBlur
         id="feGaussianBlur4642"
         in="composite1"
         stdDeviation="6"
         result="blur" />
      <feOffset
         id="feOffset4644"
         dx="6"
         dy="6"
         result="offset" />
      <feComposite
         in2="offset"
         id="feComposite4646"
         in="fbSourceGraphic"
         operator="over"
         result="composite2" />
    </filter>
    <filter
       style="color-interpolation-filters:sRGB"
       inkscape:label="Color Shift"
       id="filter3861">
      <feColorMatrix
         type="hueRotate"
         values="112"
         result="color1"
         id="feColorMatrix3857" />
      <feColorMatrix
         type="saturate"
         values="0.6"
         result="fbSourceGraphic"
         id="feColorMatrix3859" />
      <feColorMatrix
         result="fbSourceGraphicAlpha"
         in="fbSourceGraphic"
         values="0 0 0 -1 0 0 0 0 -1 0 0 0 0 -1 0 0 0 0 1 0"
         id="feColorMatrix3863" />
      <feColorMatrix
         id="feColorMatrix3865"
         type="hueRotate"
         values="112"
         result="color1"
         in="fbSourceGraphic" />
      <feColorMatrix
         id="feColorMatrix3867"
         type="saturate"
         values="0.6"
         result="color2" />
    </filter>
    <filter
       style="color-interpolation-filters:sRGB"
       inkscape:label="Color Shift"
       id="filter3873">
      <feColorMatrix
         type="hueRotate"
         values="112"
         result="color1"
         id="feColorMatrix3869" />
      <feColorMatrix
         type="saturate"
         values="0.6"
         result="fbSourceGraphic"
         id="feColorMatrix3871" />
      <feColorMatrix
         result="fbSourceGraphicAlpha"
         in="fbSourceGraphic"
         values="0 0 0 -1 0 0 0 0 -1 0 0 0 0 -1 0 0 0 0 1 0"
         id="feColorMatrix3911" />
      <feColorMatrix
         id="feColorMatrix3913"
         type="hueRotate"
         values="323"
         result="color1"
         in="fbSourceGraphic" />
      <feColorMatrix
         id="feColorMatrix3915"
         type="saturate"
         values="0.61"
         result="color2" />
    </filter>
    <filter
       style="color-interpolation-filters:sRGB"
       inkscape:label="Color Shift"
       id="filter4017"
       x="-0.1215186"
       y="-0.21051334"
       width="1.2936701"
       height="1.5087405">
      <feColorMatrix
         type="hueRotate"
         values="327"
         result="color1"
         id="feColorMatrix4013" />
      <feColorMatrix
         type="saturate"
         values="1"
         result="color2"
         id="feColorMatrix4015" />
    </filter>
    <filter
       style="color-interpolation-filters:sRGB"
       inkscape:label="Color Shift"
       id="filter4135"
       x="0"
       y="0"
       width="1"
       height="1">
      <feColorMatrix
         type="hueRotate"
         values="229"
         result="color1"
         id="feColorMatrix4131" />
      <feColorMatrix
         type="saturate"
         values="0.79"
         result="color2"
         id="feColorMatrix4133" />
    </filter>
    <linearGradient
       x1="0"
       y1="0"
       x2="1"
       y2="0"
       gradientUnits="userSpaceOnUse"
       gradientTransform="matrix(-4.02e-6,-91.8907,-91.8907,4.02e-6,85.8809,161.434)"
       spreadMethod="pad"
       id="linearGradient3027">
      <stop
         style="stop-opacity:1;stop-color:#97d9f6"
         offset="0"
         id="stop3029" />
      <stop
         style="stop-opacity:1;stop-color:#0f80cc"
         offset="0.920245"
         id="stop3031" />
      <stop
         style="stop-opacity:1;stop-color:#0f80cc"
         offset="1"
         id="stop3033" />
    </linearGradient>
    <filter
       style="color-interpolation-filters:sRGB;"
       inkscape:label="Drop Shadow"
       id="filter1553">
      <feFlood
         flood-opacity="0.498039"
         flood-color="rgb(0,0,0)"
         result="flood"
         id="feFlood1543" />
      <feComposite
         in="flood"
         in2="SourceGraphic"
         operator="in"
         result="composite1"
         id="feComposite1545" />
      <feGaussianBlur
         in="composite1"
         stdDeviation="3"
         result="blur"
         id="feGaussianBlur1547" />
      <feOffset
         dx="6"
         dy="6"
         result="offset"
         id="feOffset1549" />
      <feComposite
         in="SourceGraphic"
         in2="offset"
         operator="over"
         result="composite2"
         id="feComposite1551" />
    </filter>
    <filter
       inkscape:label="Black Hole"
       inkscape:menu="Morphology"
       inkscape:menu-tooltip="Creates a black light inside and outside"
       height="1.0441137"
       width="1.0594339"
       y="-0.022056837"
       x="-0.029716946"
       style="color-interpolation-filters:sRGB"
       id="filter776">
      <feGaussianBlur
         stdDeviation="5"
         in="SourceAlpha"
         result="result1"
         id="feGaussianBlur764" />
      <feComposite
         operator="arithmetic"
         k2="3.2"
         k1="-1"
         k4="-2"
         result="result3"
         in2="result1"
         id="feComposite766"
         k3="0" />
      <feColorMatrix
         values="1 0 0 0 0 0 1 0 0 0 0 0 1 0 0 0 0 0 10 0 "
         result="result2"
         id="feColorMatrix768" />
      <feComposite
         result="fbSourceGraphic"
         in="SourceGraphic"
         operator="out"
         in2="result2"
         id="feComposite770" />
      <feBlend
         mode="multiply"
         in="result1"
         in2="fbSourceGraphic"
         result="result91"
         id="feBlend772" />
      <feBlend
         mode="screen"
         in="fbSourceGraphic"
         in2="result91"
         id="feBlend774" />
    </filter>
  </defs>
  <g
     id="g249"
     transform="matrix(0.54955912,0,0,0.54955912,73.484434,339.70901)"
     style="fill:#ffd42a;fill-opacity:1;filter:url(#filter776)">
    <path
       id="path5740"
       style="color:#000000;text-indent:0;text-transform:none;fill:#ffd42a;fill-opacity:1;fill-rule:evenodd"
       inkscape:connector-curvature="0"
       d="m 713.47,204.89 v 74.226 c -91.83,18.86 -161.52,100.63 -161.52,197.79 0,96.668 69.012,178.12 160.15,197.51 L 645.092,607.408 686.15,566.35 c -26.951,-20.333 -44.214,-52.667 -44.214,-89.444 0,-48.051 29.471,-88.501 71.524,-104.52 v 115.53 L 854.98,346.396 713.47,204.886 Z" />
    <path
       id="path2985"
       style="color:#000000;text-indent:0;text-transform:none;fill:#ffd42a;fill-opacity:1;fill-rule:evenodd"
       inkscape:connector-curvature="0"
       d="m 795.61,279.41 67.008,66.993 -41.074,41.074 c 26.961,20.328 44.23,52.647 44.23,89.428 0,48.051 -29.47,88.512 -71.524,104.54 v -115.55 l -141.52,141.52 141.52,141.52 v -74.226 c 91.812,-18.87 161.51,-100.65 161.51,-197.79 0,-96.667 -69.01,-178.1 -160.15,-197.49 z" />
  </g>
  <path
     fill="#32322a"
     d="m 360.89004,385.76696 c -10.4211,1.4712 -17.59326,10.9114 -16.06074,21.02607 a 18.819287,18.819287 0 0 0 13.60872,15.57025 c 0,0 45.79155,15.08001 123.70464,21.51655 62.58792,5.21058 133.63535,-4.47497 133.63535,-4.47497 10.42109,-0.24524 18.57406,-8.88859 18.32886,-19.30963 a 18.788637,18.788637 0 0 0 -19.30966,-18.32891 c -1.22601,0 -2.45203,0.24524 -3.73935,0.49048 0,0 -69.51492,8.64335 -125.97277,3.9845 -74.4802,-5.94618 -115.06121,-19.55487 -115.06121,-19.55487 -2.94243,-0.98084 -6.19136,-1.4712 -9.13384,-0.98084 z m 0,-93.29948 c -10.4211,1.4712 -17.59326,10.91152 -16.06074,21.02607 a 18.819287,18.819287 0 0 0 13.60872,15.57037 c 0,0 45.79155,15.07989 123.70464,21.51643 62.58792,5.21058 133.63535,-4.47486 133.63535,-4.47486 10.42109,-0.24524 18.57406,-8.88858 18.32886,-19.30974 a 18.788637,18.788637 0 0 0 -19.30966,-18.32879 c -1.22601,0 -2.45203,0.24512 -3.73935,0.49036 0,0 -69.51492,8.64335 -125.97277,3.9845 -74.4802,-5.94606 -115.06121,-19.55487 -115.06121,-19.55487 -2.94243,-0.98072 -6.19136,-1.4712 -9.13384,-0.98072 z m 0,-93.29996 c -10.4211,1.4712 -17.59326,10.9114 -16.06074,21.02607 a 18.819287,18.819287 0 0 0 13.60872,15.57025 c 0,0 45.79155,15.08061 123.70464,21.51715 62.58792,5.21058 133.63535,-4.47498 133.63535,-4.47498 10.42109,-0.24512 18.57406,-8.88859 18.32886,-19.31023 a 18.788637,18.788637 0 0 0 -19.30966,-18.3289 c -1.22601,0 -2.45203,0.24524 -3.73935,0.49048 0,0 -69.51492,8.64335 -125.97277,3.9845 -74.4802,-5.94618 -115.06121,-19.55487 -115.06121,-19.55487 -2.94243,-0.98084 -6.19136,-1.22596 -9.13384,-0.98084 z m 0,-93.05421 c -10.4211,1.4712 -17.59326,10.91152 -16.06074,21.02607 a 18.819287,18.819287 0 0 0 13.60872,15.57037 c 0,0 45.79155,15.07989 123.70464,21.51644 62.58792,5.21058 133.63535,-4.47486 133.63535,-4.47486 10.42109,-0.24524 18.57406,-8.88859 18.32886,-19.30975 a 18.788637,18.788637 0 0 0 -19.30966,-18.32879 c -1.22601,0 -2.45203,0.24512 -3.73935,0.49036 0,0 -69.51492,8.64335 -125.97277,3.9845 -74.4802,-5.94606 -115.06121,-19.55487 -115.06121,-19.55487 a 16.796368,16.796368 0 0 0 -9.13384,-0.98072 z M 230.25848,7.6646159 C 132.23881,8.4002169 95.887535,38.621366 95.887535,38.621366 V 770.36701 c 0,0 35.615665,-30.71151 150.431685,-25.99141 114.81601,4.72022 138.35549,45.05592 279.40818,47.75308 141.05271,2.69729 176.42318,-21.76167 176.42318,-21.76167 L 704.1122,24.522319 c 0,0 -63.32357,18.083665 -187.08947,19.064387 C 393.56328,44.506298 363.89383,12.139595 250.54896,8.4002169 243.622,7.9098559 236.94024,7.6646159 230.25848,7.6646159 Z m 81.89757,47.7532031 c 0,0 59.40034,19.554867 169.00581,25.010567 92.80913,4.7201 185.61825,-9.13383 185.61825,-9.13383 V 734.26105 c 0,0 -47.01756,24.76545 -164.53087,16.30597 C 411.1566,744.13048 310.99134,709.495 310.99134,709.495 l 1.22601,-654.015931 z m -57.13216,17.347947 c 10.4211,0 19.06453,8.39822 19.06453,19.0645 0,10.666284 -8.39824,19.064514 -19.06453,19.064514 0,0 -30.71156,0.24512 -49.46959,1.96157 -31.44717,3.18764 -52.96372,14.58952 -52.96372,14.58952 -9.13378,4.96534 -20.78088,1.22609 -25.50101,-7.90774 -4.96541,-9.13383 -1.22601,-20.780834 7.90777,-25.501054 9.13378,-4.7201 27.95303,-14.83465 66.81763,-18.57403 22.49736,-2.45204 53.20892,-2.69728 53.20892,-2.69728 z m -18.32886,93.544604 c 10.42109,-0.24512 18.32886,0 18.32886,0 10.4211,1.22608 17.83852,10.6664 16.55121,21.02615 a 18.880588,18.880588 0 0 1 -16.55121,16.5511 c 0,0 -30.71156,0.24524 -49.46959,1.96156 -31.44717,3.18765 -52.96372,14.58953 -52.96372,14.58953 -9.13378,4.96534 -20.78088,1.22608 -25.50101,-7.90775 -4.96541,-9.1337 -1.22601,-20.78083 7.90777,-25.50105 0,0 27.95303,-14.83461 66.81763,-18.57399 11.4019,-1.4712 24.52027,-1.96156 34.88006,-2.2068 z m 18.32886,93.0548 c 10.4211,0 19.06453,8.39823 19.06453,19.06451 0,10.66628 -8.39824,19.06451 -19.06453,19.06451 0,0 -30.71156,-0.24524 -49.46959,1.71632 -31.44717,3.18765 -52.96372,14.58953 -52.96372,14.58953 -9.13378,4.96534 -20.78088,1.22608 -25.50101,-7.90775 -4.96541,-9.1337 -1.22601,-20.78083 7.90777,-25.50104 0,0 27.95303,-14.83465 66.81763,-18.57403 22.49736,-2.69717 53.20892,-2.45205 53.20892,-2.45205 z"
     id="path1"
     style="stroke-width:6.13005" />
</svg>
