<?xml version="1.0" encoding="UTF-8" standalone="no"?>
<svg
   viewBox="0 0 128 128"
   width="128"
   height="128"
   version="1.1"
   id="svg1"
   sodipodi:docname="multiflexi-csas.svg"
   inkscape:version="1.4 (e7c3feb100, 2024-10-09)"
   xmlns:inkscape="http://www.inkscape.org/namespaces/inkscape"
   xmlns:sodipodi="http://sodipodi.sourceforge.net/DTD/sodipodi-0.dtd"
   xmlns="http://www.w3.org/2000/svg"
   xmlns:svg="http://www.w3.org/2000/svg">
  <defs
     id="defs1">
    <filter
       inkscape:label="Black Hole"
       inkscape:menu="Morphology"
       inkscape:menu-tooltip="Creates a black light inside and outside"
       height="1.0441137"
       width="1.0594339"
       y="-0.022056837"
       x="-0.029716946"
       style="color-interpolation-filters:sRGB"
       id="filter776">
      <feGaussianBlur
         stdDeviation="5"
         in="SourceAlpha"
         result="result1"
         id="feGaussianBlur764" />
      <feComposite
         operator="arithmetic"
         k2="3.2"
         k1="-1"
         k4="-2"
         result="result3"
         in2="result1"
         id="feComposite766"
         k3="0" />
      <feColorMatrix
         values="1 0 0 0 0 0 1 0 0 0 0 0 1 0 0 0 0 0 10 0 "
         result="result2"
         id="feColorMatrix768" />
      <feComposite
         result="fbSourceGraphic"
         in="SourceGraphic"
         operator="out"
         in2="result2"
         id="feComposite770" />
      <feBlend
         mode="multiply"
         in="result1"
         in2="fbSourceGraphic"
         result="result91"
         id="feBlend772" />
      <feBlend
         mode="screen"
         in="fbSourceGraphic"
         in2="result91"
         id="feBlend774" />
    </filter>
  </defs>
  <sodipodi:namedview
     id="namedview1"
     pagecolor="#ffffff"
     bordercolor="#000000"
     borderopacity="0.25"
     inkscape:showpageshadow="2"
     inkscape:pageopacity="0.0"
     inkscape:pagecheckerboard="0"
     inkscape:deskcolor="#d1d1d1"
     inkscape:zoom="0.78125"
     inkscape:cx="405.12"
     inkscape:cy="174.72"
     inkscape:window-width="1920"
     inkscape:window-height="1120"
     inkscape:window-x="0"
     inkscape:window-y="0"
     inkscape:window-maximized="1"
     inkscape:current-layer="svg1" />
  <text
     x="64"
     y="78"
     font-family="DejaVu Sans,sans-serif"
     font-size="40"
     font-weight="bold"
     text-anchor="middle"
     fill="white"
     id="text1">ČSAS</text>
  <g
     transform="matrix(0.66922785,0,0,0.66922785,29.200152,49.611601)"
     id="g5">
    <path
       style="fill:#e30613"
       id="path7"
       d="m 92.4,0 c 0.9,0 1.8,0.4 2.4,1 0.7,0.7 1,1.5 1,2.5 0,1 -0.3,1.8 -1,2.5 -0.7,0.7 -1.5,1 -2.5,1 -1,0 -1.8,-0.3 -2.5,-1 -0.7,-0.7 -1,-1.5 -1,-2.5 0,-1 0.3,-1.8 1,-2.5 0.9,-0.6 1.7,-1 2.6,-1 z M 104,14.1 v -2.2 c 0,-2 -1.7,-3.7 -3.7,-3.7 H 84.6 c -2,0 -3.7,1.7 -3.7,3.7 V 20 h 17.5 v 1.2 H 80.9 v 2.2 c 0,2 1.7,3.7 3.7,3.7 h 15.7 c 2,0 3.7,-1.7 3.7,-3.7 V 15.3 H 86.5 v -1.2 z"
       class="st0" />
    <path
       style="fill:#00497b"
       id="path9"
       d="m 8.1,8.1 c 3.9,0 5.2,0.7 5.2,2.3 v 1.8 H 8.1 c -2.6,0 -3.2,1.1 -3.2,5.5 0,4.3 0.6,5.5 3.2,5.5 h 5.2 V 25 c 0,1.6 -1.3,2.3 -5.2,2.3 C 2.9,27.3 0,24.4 0,17.7 0,10.9 2.8,8.1 8.1,8.1 Z M 7.4,7.2 C 7,7.2 6.8,7.1 6.5,6.7 L 4.1,3.6 C 4,3.5 4,3.3 4,3.2 h 1.8 c 0.4,0 0.5,0.1 0.9,0.4 L 8,4.8 9.2,3.7 C 9.6,3.3 9.8,3.3 10.1,3.3 H 12 c 0,0.1 0,0.3 -0.1,0.4 l -2.4,3 C 9.2,7.1 9,7.2 8.6,7.2 Z m 7.4,2.7 c 0,-1.1 0.5,-1.7 1.6,-1.7 h 10.4 v 2.3 c 0,1.1 -0.6,1.7 -1.7,1.7 h -5.6 v 3.4 h 6.2 v 3.8 h -6.2 v 3.7 h 7.4 v 2.3 c 0,1.1 -0.6,1.7 -1.7,1.7 h -8.8 c -1.1,0 -1.6,-0.6 -1.6,-1.7 z m 20,-1.8 c 3.9,0 6,0.4 6,2.3 v 1.9 h -5.4 c -1.4,0 -1.9,0.4 -1.9,1.2 0,2.3 8.2,1.8 8.2,8.2 0,3 -1.7,5.7 -7.1,5.7 -3.5,0 -6.2,-0.6 -6.2,-2.3 v -1.9 h 6.4 c 1.3,0 1.9,-0.4 1.9,-1.3 0,-2.5 -8.2,-2 -8.2,-8.6 0,-2.9 1.9,-5.2 6.3,-5.2 z m 13.7,8.8 4.7,-7.8 C 53.6,8.3 53.9,8.2 54.5,8.2 H 59 C 59,8.5 58.9,8.7 58.8,9 l -5.4,8.3 5.7,9 c 0.1,0.2 0.3,0.5 0.3,0.8 H 55 c -0.9,0 -1.2,-0.1 -1.7,-0.9 L 48.4,18.4 V 27 H 43.7 V 9.9 c 0,-1.1 0.5,-1.7 1.6,-1.7 h 3.1 v 8.7 z M 70,8.2 c 0.8,0 1.2,0.1 1.4,0.8 l 4.4,17.5 c 0.1,0.3 0.1,0.5 0.1,0.7 H 72 c -0.8,0 -1,-0.1 -1.2,-0.7 l -0.9,-3.8 h -4.4 l -0.9,3.8 c -0.1,0.7 -0.4,0.7 -1.2,0.7 h -3.8 c 0,-0.2 0,-0.4 0.1,-0.7 L 64.1,9 c 0.2,-0.7 0.6,-0.8 1.4,-0.8 z m -3.8,10.9 h 2.9 L 67.7,13 h -0.1 z m 3,-12.3 c -0.4,0.4 -0.6,0.4 -0.9,0.4 h -1.8 c 0,-0.1 0,-0.3 0.1,-0.4 L 69,3.7 c 0.3,-0.4 0.5,-0.5 0.9,-0.5 h 1.8 c 0.2,0 0.3,0.1 0.3,0.2 0,0.1 -0.1,0.2 -0.3,0.5 z M 2.6,33.3 c 1.3,0 2.2,0 2.2,0.7 v 0.4 H 2.6 c -0.7,0 -1.1,0.3 -1.1,0.8 0,1.5 3.7,1.1 3.7,3.6 0,1.2 -0.8,2.1 -2.9,2.1 -1.2,0 -2.3,0 -2.3,-0.6 v -0.4 h 2.5 c 0.9,0 1.3,-0.3 1.3,-1 0,-1.4 -3.7,-1.1 -3.7,-3.6 0,-1.3 0.9,-2 2.5,-2 z m 5,9.7 H 6.3 V 33.4 H 7 c 0.5,0 0.7,0.3 0.7,0.6 v 0.2 c 0.4,-0.5 1.1,-0.9 1.9,-0.9 1.7,0 2.6,1.4 2.6,3.8 0,2.3 -0.8,3.8 -2.6,3.8 -0.8,0 -1.5,-0.4 -1.9,-0.9 v 3 z M 9.1,34.4 C 8.5,34.4 8,34.7 7.6,35 v 4.1 c 0.4,0.4 0.9,0.6 1.5,0.6 1.2,0 1.6,-0.9 1.6,-2.7 0,-1.6 -0.5,-2.6 -1.6,-2.6 z m 3.9,2.7 c 0,-2.1 0.7,-3.8 3,-3.8 2.3,0 3,1.7 3,3.8 0,2.1 -0.7,3.8 -3,3.8 -2.3,0 -3,-1.7 -3,-3.8 z m 4.6,0 c 0,-1.8 -0.4,-2.8 -1.6,-2.8 -1.3,0 -1.6,1 -1.6,2.8 0,1.8 0.4,2.8 1.6,2.8 1.3,0 1.6,-1 1.6,-2.8 z m 4.1,-4.4 c -0.2,0 -0.3,0 -0.4,-0.3 L 20.1,31 C 20,31 20,30.9 20,30.9 h 0.6 c 0.2,0 0.3,0 0.5,0.2 l 0.8,0.7 0.8,-0.7 c 0.2,-0.2 0.3,-0.2 0.5,-0.2 h 0.6 c 0,0.1 0,0.1 -0.1,0.2 l -1.2,1.4 c -0.2,0.2 -0.3,0.3 -0.4,0.3 h -0.4 z m -1.4,8.1 V 33.4 H 21 c 0.4,0 0.6,0.4 0.7,0.9 0.6,-0.8 1.3,-1 1.9,-1 0.3,0 0.5,0.1 0.5,0.4 v 0.9 h -0.4 c -1.1,0 -1.6,0.3 -2.1,0.6 v 5.5 H 20.3 Z M 26,32.6 h -1.3 v -0.8 c 0,-0.4 0.2,-0.7 0.6,-0.7 H 26 Z m -1.3,0.8 h 0.7 c 0.5,0 0.6,0.3 0.6,0.7 v 6.7 h -1.3 z m 4.6,0 h 1.6 v 1 h -1.6 v 4.5 c 0,0.6 0.1,0.9 0.5,0.9 h 1.1 v 0.3 c 0,0.6 -0.5,0.7 -1.3,0.7 -1.5,0 -1.7,-0.8 -1.7,-1.9 V 34.4 H 27 v -0.7 l 0.9,-0.3 0.5,-1.2 c 0.1,-0.3 0.3,-0.4 0.5,-0.4 h 0.3 v 1.6 z m 7.4,6.4 v 0.3 c 0,0.6 -0.8,0.7 -2.4,0.7 -2.3,0 -3,-1.7 -3,-3.8 0,-2.1 0.8,-3.8 3,-3.8 1.8,0 2.8,1.1 2.8,2.8 0,0.3 0,0.7 -0.1,1.4 h -4.3 c 0,1.7 0.6,2.4 1.8,2.4 z m -1,-3.3 c 0,-0.1 0,-0.4 0,-0.6 0,-0.7 -0.3,-1.6 -1.4,-1.6 -1,0 -1.6,0.7 -1.6,2.2 z m 3.9,4.3 h -1.3 v -9.1 c 0,-0.4 0.2,-0.7 0.6,-0.7 h 0.7 z m 1.6,0 v -7.4 h 0.7 c 0.5,0 0.7,0.3 0.7,0.6 v 0.3 c 0.6,-0.7 1.4,-0.9 2.1,-0.9 1.4,0 2.1,0.9 2.1,2.3 v 5.2 h -1.3 v -5.1 c 0,-0.9 -0.5,-1.2 -1.3,-1.2 -0.6,0 -1.1,0.3 -1.6,0.6 V 41 h -1.4 z m 11.7,0 c -0.5,0 -0.7,-0.3 -0.7,-0.6 V 40 c -0.6,0.7 -1.4,0.9 -2.1,0.9 -1.3,0 -2.2,-0.8 -2.2,-2.1 0,-1.9 2,-2.3 4.2,-2.4 v -0.7 c 0,-1 -0.7,-1.3 -1.6,-1.3 H 48.4 V 34 c 0,-0.7 0.8,-0.7 2.3,-0.7 1.7,0 2.7,0.7 2.7,2.3 v 5.2 z m -0.6,-3.6 c -2,0 -2.8,0.5 -2.8,1.4 0,0.8 0.6,1.1 1.3,1.1 0.6,0 1.1,-0.3 1.5,-0.6 z"
       class="st1" />
  </g>
  <g
     id="g249"
     transform="matrix(0.29124007,0,0,0.29124007,-155.55278,-74.895452)"
     style="fill:#ffd42a;fill-opacity:1;filter:url(#filter776)">
    <animateTransform
       attributeName="transform"
       attributeType="XML"
       type="rotate"
       from="0 754 477"
       to="360 754 477"
       dur="10s"
       repeatCount="indefinite"
       additive="sum" />
    <path
       id="path5740"
       style="color:#000000;text-indent:0;text-transform:none;fill:#ffd42a;fill-opacity:1;fill-rule:evenodd"
       inkscape:connector-curvature="0"
       d="m 713.47,204.89 v 74.226 c -91.83,18.86 -161.52,100.63 -161.52,197.79 0,96.668 69.012,178.12 160.15,197.51 L 645.092,607.408 686.15,566.35 c -26.951,-20.333 -44.214,-52.667 -44.214,-89.444 0,-48.051 29.471,-88.501 71.524,-104.52 v 115.53 L 854.98,346.396 713.47,204.886 Z" />
    <path
       id="path2985"
       style="color:#000000;text-indent:0;text-transform:none;fill:#ffd42a;fill-opacity:1;fill-rule:evenodd"
       inkscape:connector-curvature="0"
       d="m 795.61,279.41 67.008,66.993 -41.074,41.074 c 26.961,20.328 44.23,52.647 44.23,89.428 0,48.051 -29.47,88.512 -71.524,104.54 v -115.55 l -141.52,141.52 141.52,141.52 v -74.226 c 91.812,-18.87 161.51,-100.65 161.51,-197.79 0,-96.667 -69.01,-178.1 -160.15,-197.49 z" />
  </g>
</svg>
